<svg width="16" height="12" viewBox="0 0 16 12" fill="none" xmlns="http://www.w3.org/2000/svg">
  <path fill-rule="evenodd" clip-rule="evenodd" d="M8.30052 2.69626C10.5349 2.69636 12.6839 3.55491 14.3033 5.09447C14.4252 5.21333 14.6201 5.21183 14.7402 5.09111L15.9059 3.91469C15.9667 3.85346 16.0006 3.77053 16.0001 3.68423C15.9996 3.59793 15.9647 3.5154 15.9032 3.45488C11.6529 -0.618425 4.94749 -0.618425 0.697169 3.45488C0.635599 3.51535 0.60067 3.59786 0.600105 3.68416C0.59953 3.77046 0.633381 3.85342 0.694144 3.91469L1.86015 5.09111C1.98016 5.21201 2.17523 5.21351 2.2971 5.09447C3.91667 3.55481 6.06589 2.69626 8.30052 2.69626ZM8.30052 6.52365C9.52819 6.52357 10.712 6.97989 11.622 7.80393C11.7451 7.92088 11.939 7.91834 12.059 7.79821L13.2233 6.6218C13.2846 6.56009 13.3187 6.47638 13.3178 6.38939C13.3169 6.30241 13.2812 6.21941 13.2186 6.15896C10.4474 3.58121 6.15594 3.58121 3.38478 6.15896C3.32218 6.21941 3.28647 6.30245 3.28565 6.38946C3.28482 6.47648 3.31897 6.56018 3.38041 6.6218L4.54439 7.79821C4.66437 7.91834 4.85826 7.92088 4.98134 7.80393C5.89075 6.98043 7.07366 6.52416 8.30052 6.52365ZM10.5381 9.33125C10.6003 9.27014 10.6346 9.18604 10.6328 9.09881C10.6311 9.01158 10.5934 8.92895 10.5286 8.87043C9.24242 7.78253 7.35862 7.78253 6.07239 8.87043C6.00763 8.9289 5.96987 9.01151 5.96802 9.09874C5.96618 9.18597 6.00041 9.27009 6.06264 9.33125L8.077 11.3638C8.13604 11.4235 8.21653 11.4571 8.30052 11.4571C8.38451 11.4571 8.46499 11.4235 8.52403 11.3638L10.5381 9.33125Z" fill="#BFC0BF"/>
</svg>
